<svg xmlns="http://www.w3.org/2000/svg" viewBox="0 0 1200 630" width="1200" height="630" role="img" aria-hidden="true"><rect width="1200" height="630" fill="#06101f"/><g stroke="#1e2b3b" stroke-width="1" opacity=".8"><path d="M0 0V630"/><path d="M80 0V630"/><path d="M160 0V630"/><path d="M240 0V630"/><path d="M320 0V630"/><path d="M400 0V630"/><path d="M480 0V630"/><path d="M560 0V630"/><path d="M640 0V630"/><path d="M720 0V630"/><path d="M800 0V630"/><path d="M880 0V630"/><path d="M960 0V630"/><path d="M1040 0V630"/><path d="M1120 0V630"/><path d="M1200 0V630"/><path d="M0 0H1200"/><path d="M0 80H1200"/><path d="M0 160H1200"/><path d="M0 240H1200"/><path d="M0 320H1200"/><path d="M0 400H1200"/><path d="M0 480H1200"/><path d="M0 560H1200"/></g><path d="M120 480C260 480 260 300 420 330S560 500 700 380 880 190 1040 170" fill="none" stroke="#d4a03a" stroke-width="3" stroke-linecap="round" stroke-linejoin="round"/><circle cx="120" cy="480" r="16" fill="#06101f" stroke="#d4a03a" stroke-width="3"/><circle cx="420" cy="330" r="16" fill="#06101f" stroke="#d4a03a" stroke-width="3"/><circle cx="700" cy="380" r="16" fill="#06101f" stroke="#d4a03a" stroke-width="3"/><circle cx="1040" cy="170" r="40" fill="#d4a03a"/><path d="M1022 170l13 13 25-27" fill="none" stroke="#06101f" stroke-width="6" stroke-linecap="round" stroke-linejoin="round"/><path d="M120 560H1080" stroke="#aeb8c6" stroke-width="2" opacity=".6"/><path transform="translate(130 188.38926174496646) scale(0.10738255033557047)" fill="#d4a03a" fill-rule="evenodd" opacity="0.9" d="M721.2 0L24 0L277.3-730L468.9-730L721.2 0M369.9-566.4L224.4-124L521.8-124L375.8-566.4"/></svg>