<svg xmlns="http://www.w3.org/2000/svg" viewBox="0 0 1200 630" width="1200" height="630" role="img" aria-hidden="true"><rect width="1200" height="630" fill="#06101f"/><g stroke="#1e2b3b" stroke-width="1" opacity=".8"><path d="M0 0V630"/><path d="M80 0V630"/><path d="M160 0V630"/><path d="M240 0V630"/><path d="M320 0V630"/><path d="M400 0V630"/><path d="M480 0V630"/><path d="M560 0V630"/><path d="M640 0V630"/><path d="M720 0V630"/><path d="M800 0V630"/><path d="M880 0V630"/><path d="M960 0V630"/><path d="M1040 0V630"/><path d="M1120 0V630"/><path d="M1200 0V630"/><path d="M0 0H1200"/><path d="M0 80H1200"/><path d="M0 160H1200"/><path d="M0 240H1200"/><path d="M0 320H1200"/><path d="M0 400H1200"/><path d="M0 480H1200"/><path d="M0 560H1200"/></g><g fill="none" stroke="#d4a03a" stroke-width="3" stroke-linecap="round" stroke-linejoin="round" opacity=".6"><path d="M560 205H640M390 280V350M810 280V350M560 425H640"/></g><rect x="220" y="130" width="340" height="150" rx="16" fill="#06101f" stroke="#d4a03a" stroke-width="3"/><path d="M260 240V190l50 30V190l50 30V190l50 30V240Z" fill="none" stroke="#d4a03a" stroke-width="3" stroke-linecap="round" stroke-linejoin="round"/><rect x="640" y="130" width="340" height="150" rx="16" fill="#06101f" stroke="#d4a03a" stroke-width="3"/><rect x="700" y="170" width="70" height="70" rx="8" fill="none" stroke="#d4a03a" stroke-width="3" stroke-linecap="round" stroke-linejoin="round"/><path d="M718 205l15 15 25-32" fill="none" stroke="#d4a03a" stroke-width="3" stroke-linecap="round" stroke-linejoin="round"/><path d="M810 190h130M810 220h90" stroke="#aeb8c6" stroke-width="3" stroke-linecap="round" opacity=".8"/><rect x="220" y="350" width="340" height="150" rx="16" fill="#06101f" stroke="#d4a03a" stroke-width="3"/><path d="M260 470h260" fill="none" stroke="#d4a03a" stroke-width="3" stroke-linecap="round" stroke-linejoin="round"/><circle cx="285" cy="485" r="9" fill="none" stroke="#d4a03a" stroke-width="3" stroke-linecap="round" stroke-linejoin="round"/><circle cx="495" cy="485" r="9" fill="none" stroke="#d4a03a" stroke-width="3" stroke-linecap="round" stroke-linejoin="round"/><rect x="290" y="420" width="50" height="40" rx="4" fill="none" stroke="#d4a03a" stroke-width="3" stroke-linecap="round" stroke-linejoin="round"/><rect x="370" y="420" width="50" height="40" rx="4" fill="none" stroke="#d4a03a" stroke-width="3" stroke-linecap="round" stroke-linejoin="round"/><rect x="450" y="420" width="50" height="40" rx="4" fill="none" stroke="#d4a03a" stroke-width="3" stroke-linecap="round" stroke-linejoin="round"/><rect x="640" y="350" width="340" height="150" rx="16" fill="#06101f" stroke="#d4a03a" stroke-width="3"/><path d="M680 450l60-30 40 20 70-50 60 30 30-20" fill="none" stroke="#d4a03a" stroke-width="3" stroke-linecap="round" stroke-linejoin="round"/><circle cx="910" cy="440" r="7" fill="#d4a03a"/><path transform="translate(571 341.8322147651007) scale(0.07785234899328859)" fill="#d4a03a" fill-rule="evenodd" opacity="1" d="M721.2 0L24 0L277.3-730L468.9-730L721.2 0M369.9-566.4L224.4-124L521.8-124L375.8-566.4"/></svg>