<svg xmlns="http://www.w3.org/2000/svg" viewBox="0 0 1200 630" width="1200" height="630" role="img" aria-hidden="true">
<rect width="1200" height="630" fill="#06101f"/>
<g stroke="#1e2b3b" stroke-width="1" opacity=".8"><path d="M0 0V630" /><path d="M80 0V630" /><path d="M160 0V630" /><path d="M240 0V630" /><path d="M320 0V630" /><path d="M400 0V630" /><path d="M480 0V630" /><path d="M560 0V630" /><path d="M640 0V630" /><path d="M720 0V630" /><path d="M800 0V630" /><path d="M880 0V630" /><path d="M960 0V630" /><path d="M1040 0V630" /><path d="M1120 0V630" /><path d="M1200 0V630" /><path d="M0 0H1200" /><path d="M0 80H1200" /><path d="M0 160H1200" /><path d="M0 240H1200" /><path d="M0 320H1200" /><path d="M0 400H1200" /><path d="M0 480H1200" /><path d="M0 560H1200" /></g>
<g fill="none" stroke="#d4a03a" stroke-width="3" stroke-linejoin="round"><path d="M600 130 820 500H380Z"/><path d="M600 250 710 440H490Z" opacity=".55"/></g>
<g stroke="#aeb8c6" stroke-width="2" opacity=".6"><path d="M600 130 250 220M600 130 950 220M380 500 250 220M820 500 950 220M380 500 150 420M820 500 1050 420M250 220 150 420M950 220 1050 420"/></g>
<g fill="#06101f" stroke="#d4a03a" stroke-width="3"><circle cx="600" cy="130" r="16"/><circle cx="380" cy="500" r="16"/><circle cx="820" cy="500" r="16"/><circle cx="250" cy="220" r="12"/><circle cx="950" cy="220" r="12"/><circle cx="150" cy="420" r="12"/><circle cx="1050" cy="420" r="12"/></g>
<circle cx="600" cy="380" r="9" fill="#d4a03a"/>
</svg>