<svg xmlns="http://www.w3.org/2000/svg" viewBox="0 0 1744 1744" fill="none" shape-rendering="auto"><metadata xmlns:rdf="http://www.w3.org/1999/02/22-rdf-syntax-ns#" xmlns:xsi="http://www.w3.org/2001/XMLSchema-instance" xmlns:dc="http://purl.org/dc/elements/1.1/" xmlns:dcterms="http://purl.org/dc/terms/"><rdf:RDF><rdf:Description><dc:title>Notionists</dc:title><dc:creator>Zoish</dc:creator><dc:source xsi:type="dcterms:URI">https://heyzoish.gumroad.com/l/notionists</dc:source><dcterms:license xsi:type="dcterms:URI">https://creativecommons.org/publicdomain/zero/1.0/</dcterms:license><dc:rights>Remix of „Notionists” (https://heyzoish.gumroad.com/l/notionists) by „Zoish”, licensed under „CC0 1.0” (https://creativecommons.org/publicdomain/zero/1.0/)</dc:rights></rdf:Description></rdf:RDF></metadata><mask id="viewboxMask"><rect width="1744" height="1744" rx="872" ry="872" x="0" y="0" fill="#fff" /></mask><g mask="url(#viewboxMask)"><rect fill="#F0EADF" width="1744" height="1744" x="0" y="0" /><g transform="translate(69.76 69.76) scale(0.92)"><g transform="translate(531 487)"><path d="M554 727.7c-99.2 297-363.8 388.6-503.7 19.8-19.3-50.7 31-69.5 66.2-91.9 24.1-15.3 36.8-28.5 35.3-42.2-7-64.4-36.9-243.8-36.9-243.8l-3-5.8s.7-1.6-2.2 1.2c-3 3-9.9 34.2-37 34.2-24.5 0-49.2-10.9-61-86.3C7.2 285.6 9.6 214 40 201c12.5-5.3 24-7.2 35.2-.8 11.3 6.4-13-22 112-126C268.4 6.4 396.7-3.5 448.5 8 500.3 19.5 552 44.8 574.9 98.5c27.8 65-25.9 114.3-14 262.5-2.2 53.6.8 171.2-146.6 210.6-28 7.5-19.3 48.4 22.7 58.4 67 21 117 72.3 117 97.9" fill="#fff"/><path fill-rule="evenodd" clip-rule="evenodd" d="m554 266.2.1-1.4c4.1-36.4 8.2-71.7 27.1-103.4 6.5 4.4 5.7 10 3.7 15.2-19.9 51.2-18 104.4-16.2 157.6l.4 14c2.1 66.4-14.5 126.8-58.7 177.5-15.4 17.6-35.8 29.8-56.5 40.3-21.4 11-25.9 20.1-19.2 43.6l.8 2.6c1.4 3.9 2.8 7.9-1 11.8-4.5 4.6-9.5 3.3-14.8 1.8l-.6-.1a406.4 406.4 0 0 1-137-68.3c-6-4.4-10.8-10.3-15.5-16.1l-.3-.4c-2.5-3-3-7.8.5-10.4 3.3-2.5 5.8-.5 8.7 1.8l1 .9a145.5 145.5 0 0 0 76.3 31.7c13.4 1.4 26.6.9 40 .4 7.4-.3 14.8-.6 22.3-.5 10.2 0 18.7-4.7 26.7-9.2l2.8-1.6c27.8-15.5 54.3-32.8 72.2-60.7 16.1-25 25.9-52.2 31.6-80.9 7.2-36.1 6.6-72.7 6-109.8-.3-12-.5-24.2-.5-36.4ZM50.6 190.8c21.9-1.7 34 11.2 44.3 26.3a140.4 140.4 0 0 1 22.4 61.5c.5 3.7 1 7.6-1.2 11.3-4.5.6-4.9-3-5-5.6-.5-20.7-9.7-38.7-18.9-56.1-6.6-12.5-16.2-24.6-31.4-27.6-17.2-3.5-33 12-40.8 32.2-14.5 37.6-12 74.6 1.4 111 5.8 15.9 13.1 32.1 27.8 43.2 14.8 11.3 32.7 9.3 43.6-5.7l2-2.5c2-2.6 4-5.1 5-8 2.1-5.8 5.4-11.2 11.3-10.4 6.8 1 8 8.3 8.7 14a3661 3661 0 0 0 22 156.7l5.9 38.8c2.6 17.1 5.6 41.7 3.6 52.1a28 28 0 0 0-.3 2.2c-.4 2.8-.6 5-4.2 5.5-4.9.8-7-2-7.7-6.4-2.3-17-3-23.6-4-49.6-.9-25.2-5.6-50-10.4-74.9l-5-27c-5.2-30.8-10.3-62-10.8-97l-2 3c-7.6 11.3-13.7 20.5-24.5 24a40.5 40.5 0 0 1-46.1-12.5 127.8 127.8 0 0 1-28.8-55.8c-8.4-34-9.9-67.1.9-100.6 5.2-16.1 23.7-44.7 42.2-42Zm34.6 127.5c4.4 3.2 8.4 6 12-5.4-1.1-42.2-14.7-69.2-35.8-70.3 11.2 14.6 22 28.8 23 48.5a32.3 32.3 0 0 1-10.7-8.8c-2-2.2-4-4.4-6.5-6l-3-2.4c-4.8-3.6-9.7-7.4-17.8-4.5 3.8 5.8 9 10 14.3 14 6 4.7 12 9.3 15.6 16.5-10.6 7.7-15.2 17.7-9.7 29.9 4.8 10.5 11.9 19.2 25.9 19.8-.6-6.3-4.7-10.9-8.8-15.4-5-5.4-9.7-10.6-7.5-18.6 3.2-1.5 6.2.7 9 2.7Z" fill="#000"/></g><g transform="translate(178 1057)"><path d="M1292.6 693H83.3l8.6-63.3S14.2 603.3 6.5 588c-7.8-15.3 84.2-214.1 96.8-245.6C116 310.8 200.1 188 239 168.3a3409.1 3409.1 0 0 1 147-69.7c4.8-2.1 7.2-3 14.8-16.1 7.7-13 33.6-18.8 43-26.5 4.3-3.5 14.6-31.5 35.3-28a32.4 32.4 0 0 1 26.2 19.6s11.8 99.2 188.1 84.7c52.6-4.2 156-39 160.7-77.4 2.2-18.4-11.5-32-11.5-32s53-8.9 77.1 5c24.1 14 14.8 52 14.8 52s83.3 47 110.1 72.8C1090 196.4 1184 303.9 1225 404.5c23.1 57 77.8 160.3 85.9 173.4 8.1 13-27 36-27 36l8.8 79Z" fill="#fff"/><path fill-rule="evenodd" clip-rule="evenodd" d="M952.9 98.7a688.9 688.9 0 0 1 108.5 79.4c1.2 1 58 53.1 111.2 143.2C1226.1 412 1276 540.7 1276 540.7c10.1 26.7-34.4 57-63 73.5-50.6 29.1-78.5 51.8-75.3 51.1 30-5.9 75.6-29.2 102.5-45a98 98 0 0 1 18.8-7.7c3.2-1 6.4-2.1 9.7-3.4l2.5 9.4c4 14 7.6 27.5 7.8 42v3.7c0 9 0 18 3.7 27.7 5.2 1 9 1 13.1 0l-.2-2c-2-20.2-4-39.4-6.8-58.5-.9-6.2 0-10.3 5.2-12 5.7-2 10.1-6 14.5-10 2.3-2.2 4.5-4.3 7-6 9.8-7.2 10.9-16.9 4.5-26.1-8-11.8-13.7-24.9-19.5-38-2.1-5-4.3-10-6.7-15l-8.8-18.9c-23.3-50-50-107-69.5-140.9-28.7-49.7-87.5-149.1-151.5-203.5l-1.8-1.5c-29.2-24.9-76.7-65.3-121.5-85.2l-.2-8.4c-.1-6.1-.3-12 .3-17.7a26 26 0 0 0-10.4-24 53.8 53.8 0 0 0-31.2-13.2c-14.7-.6-33.4.5-52.4 1.5-24 1.4-48.5 2.8-67 1-11.3-1.1-12.8 2.2-9.6 15-10.5 8.5-10.3 12.7 1 19 3 1.6 6.3 2.7 9.6 3.2 10 1.5 35.5.7 49 .3l4.8-.2h1.7c3.8-.3 7.9-.6 10.4 4.8A93.8 93.8 0 0 1 829 76.8c-36.1 29.9-77.7 41.6-121.2 47.2-31.6 4-63 3.8-94.6-2-32.7-6-62.2-18.1-87.7-42.4-1.3-1.2-4.2-3.3-7.6-5.8-9.1-6.6-22.5-16.3-24-22.9 26.7-24.2-23.2-43.7-42.2-16.8-7.6 10.8-16.3 21.4-30 25.5-10.8 3.2-22 8.7-27.3 22.3-.8 2-3.4 3.3-5.4 4.2-6.5 3-13 6.2-19.4 9.3-17.3 8.3-34.6 16.6-52.2 24a751.6 751.6 0 0 0-65.3 32.3l-2.5 1.4a256.6 256.6 0 0 0-85.2 75.6C130 275.3 103.4 327 80 381.3c-13 30-26.5 60-40 89.8l-2 4.2c-2.3 5.3-4.7 10.4-7.2 15.6-11.7 25.3-23.5 50.6-28.7 78.8-3.8 20.3-4.5 34.6 16.3 48.9 16.6 11.3 32.8 22.5 52 26.7 8.8 2 10.9 8 9.5 16.6l-1.6 9.2c-1.3 7.3-2.6 14.6-3.3 21.9H90c.6-15.6 4.1-30.6 8-47l3.6-15.7c19 9.4 38.5 17.3 57.9 25 27 11 54.2 22 80.5 37.2 9.7.6 19.3.5 29-.4l-.4-.7c-.7-1.5-1.2-2.7-2-3-13.5-6.1-26.5-13.5-39.4-21a460.4 460.4 0 0 0-39-20.6c-9.8-4.4-19.4-9.1-29-13.8a555 555 0 0 0-50.1-22.6c-9-3.4-18.2-5.7-27.5-8a350.4 350.4 0 0 1-57-18.7c-8-3.3-11.1-8.7-7.4-19.6 6-17.8 13-35.2 20.3-52.4 8.7-20.3 17.9-40.4 27-60.5L75 428l12.9-28.4c8.1-17.9 16.3-35.7 24.3-53.7 12.7-28.7 29-54.9 45.2-81l1.7-2.8c26.7-43 60.8-75.8 104.3-95.7 13.3-6 26.4-12.6 39.6-19a2169.7 2169.7 0 0 1 37.7-18.5c13.2-6.6 26.4-13.3 40.8-14.9 22.7-2.4 47.6.5 57 32.2a19 19 0 0 0 2.9 5l1.5 2.4c12.6 21.4 31.1 33.6 51 44.6 34.8 19 70.6 28.1 109 20 10.5-2.3 14 .8 14.3 12.7l-.1 6.3c-.2 5.1-.5 10.2 1.4 15.1 8.8 23.2 10.8 45.9-2.7 68-1 1.5-1.6 3.3-2.2 5.2l-1 2.9-.4 1c-1.3 3.2-2.7 6.7.4 9.4 3.7 3.3 7 1 10-2.1 13.8-14 21.4-52.8 13.8-72A63 63 0 0 1 632 244c-.3-7.8.6-12.3 9-13.9a26.5 26.5 0 0 0 22.2-24c1.2-15.9 8-15.5 18.2-13 2.3 14.7 5.4 30.8 20.2 33.3 11.5 2 18.1 9.3 25.3 17l1.5 1.8c2.1 2.3 4.6 4.2 7.4 5.4 12.7 5 19.3 14 17.4 29.8-.3 2.3-.2 4.7-.1 7 0 2.4.2 4.8-.1 7-2.9 22.6 8.8 34.7 21 47.2 3.1 3.3 6.3 6.6 9.3 10.2 5.7-10.4.9-16.7-4-21.4-12.3-12-16-26.1-13.7-44.3 2.3-18-.8-35-17-44.8-2-1.2-3.9-2.4-5.7-3.7a107.8 107.8 0 0 0-9.2-5.5c-3.6-2-7.5-4-6.2-9 1.4-5.8 5.7-7 11.7-6.3a130 130 0 0 0 57-5 257.2 257.2 0 0 0 52.2-23.2c23.2-14.6 44.6-30.3 61-54.5l5.5-8.8c5.5-8.8 11-17.8 19.2-23.9 6-4.4 11.3-6.9 18.7-2.6ZM425.9 78l2-.5c11-1.6 15-7.8 19.4-15.1 1.7-2.8 3.6-5.8 6-8.7 1.4-2 3-4.4 4.5-7 3.8-6.5 8.2-13.8 15-16 13-4.5 19.2 9.1 14 12.6-14 9.3 25.4 55.2 54.3 69.7 59.4 30 111.8 32 169.7 26.8 43.6-3.9 85.6-18.3 122-46.8 15-11.7 30.4-25.8 26.7-51.5-1.1-8 4.6-10 9.7-6.8 11.3 7.5 21.2 7.6 32.4-1 7-5.5 11.8-.5 16.6 4.4 1.9 2 3.7 4 5.7 5.2 6 3.8 4.6 11 3.3 17.4l-.3 1.2c-11.9 59.2-48.6 94.9-94 119.9-23 12.7-49 18-74.9 21.6-11.5 1.6-17.4-2.7-15.2-17.5 7-5.2 15.2-7.3 23.5-9.5 5.5-1.4 11-2.9 16.3-5.3 13.8-6.2 26-15.2 38.3-24.1 4.4-3.2 8.7-6.4 13.2-9.4a214 214 0 0 1 9.7-6.3c7.2-4.4 14.5-8.9 20.6-15.2l3-3a53 53 0 0 0 4.6-4.6c2.9-3.5 5.8-7.9 2.4-12.4-3.2-4.3-5.7-2-8.1.4l-2.2 2c-5.7 4-11.3 8.1-17 12.3a543.8 543.8 0 0 1-66 43.6c-25.7 13.5-54 18.6-82.2 20.3-27 1.6-53.9.3-81-6-18.1-4.4-36.7-8.5-55.1-12.4-14.9-3-27-13.7-38.8-24a633 633 0 0 0-8.3-7.5c-4-3.8-8.2-8-12.4-2.2-4.5 6-.2 10.3 4 14.3l2.8 3c23.6 27.3 54.5 33.5 85.3 39.8l10.4 2 3 .8 1.3.4c-4.6 19.3-5.2 19.3-21.1 20.4h-.7C558 205.7 529 200.6 502 185c-21.2-12.2-41.5-26.2-48.7-54.7-5.2-20.7-19.3-30-35.8-36.7l-1.4-.4c-1.7-.5-3.4-1-4.6-3.8 2.1-8 8.3-9.6 14.5-11.2Z" fill="#000"/></g><g transform="translate(266 207)"><path d="M286.1 399.8c9.9-14.7 13-31.3 21.2-46a328.8 328.8 0 0 1 57-72.4c26.3-26 54.7-49.7 88-66 45.4-22 93.8-33.6 144.2-30.8 32 1.9 63 10.8 92.8 24.6 29.7 13.7 102.5 9 155.6 113.1C906 442.4 866.2 503.8 873 565.1c6 52.4 27 99.3 32 151.8 5.3 56.9 20.2 141.3 1.7 200.3-4.3 13.8-13.9 17.3-24.3 17.5-22.9.5-44.5 8-66.7 10-25 2.1-49.3 8.8-74.6 9.7-18 .7-29-7.3-36.5-20.3a118.6 118.6 0 0 1-16.7-63c.2-9-.8-13.6-12-10.4-17 4.8-34.6 3.5-52 1-3.8-.6-9 .7-9.6-6.9a37 37 0 0 1 21-5.5c50.8-.5 93.5-20.1 126.8-57.8 22.6-25.5 41.4-55.1 49-88.2 6-26.4 7.5-54.5 10-82 4.6-49.4-3.5-99.5 9.3-149.7-19.8-3-37.6-12.5-56.4-19.4a175 175 0 0 1-41.2-21.9c-11.4-8-21-10.8-34.8-6.3-41.8 13.8-84.4 12.6-127 3.2-31-6.9-61.6-14.8-91.8-22.1-18.3 58.3-44 112-86.3 156.7-4 4.2-8.1 9.6-15.1 7-6-2.2-6.8-8-8-13.6-5-24.2-13.8-46-34.3-62-10.4-8-20.5-12.5-32.7-6.2a33 33 0 0 0-17.8 27.4c-3.5 33.1-3 66.3 0 99.4 1.4 14.4 5 28.8 12 41.4 12.7 23 45.4 23.3 62.7 1.6 4-5.1 6.3-12.3 13.5-14.2 19 10.5 10.1 29.5 13.6 44.3 6.7 28.5 8.2 57.9 13.6 86.7 7.6 40.8 12.7 82.1 18.7 123.2 3.9 26.8-4.6 33-31.3 35.1-28.5 2.2-54.6 11.5-81.5 18.6-20.5 5.4-40.8 11.4-61 17.2a24 24 0 0 1-21-3.4c-1.2 2-2.7 3.2-3 4.6-1.3 7-4.8 11-12.3 9.8-7.8-1.2-11.3-6.7-10-13.8 2.4-11.8.1-24.2 3-35.5 7-25.9 5.9-52.3 6.3-78.3.6-30.9 5.9-61 8.6-91.5 2.1-24 4-48.3 7.5-72.2C231.4 641 234.1 594 246 548c10.1-39.4 17.8-79.5 29.6-118.5 3-9.7 6.8-19.1 10.6-29.6Z" fill="#000"/></g><g transform="translate(791 871)"><path d="M184 99.8a43 43 0 0 0 26.7-6.4c8.8-5.7 9.9-16.8 1.5-23.1-9.4-7.3-20-7-30-1.9-20.1 10.2-40 18.9-61.2 2.4-5-3.8-11.1-6.1-16.5-9.5a31.1 31.1 0 0 0-27-2.5C66.6 62.2 58 75.4 61.1 84.6c4 11.5 14.5 10.5 23.6 9.3 10.1-1.6 20.4-.7 30 2.7 22 7.7 44.3 7.4 69.1 3.2Z" fill="#fff"/><path fill-rule="evenodd" clip-rule="evenodd" d="m190.4 114.2 16-1.3c22.4-.3 37.1-30 22-49.3-14.2-18.4-37.7-21.3-56.8-5.5-11.4 9.5-26.3 11.5-34.6 2.8a67.3 67.3 0 0 0-33-18.1C74.9 35.3 50.6 49.4 47.3 82c-2 19.1 18.8 30 38.6 28.1l4.8-.5c5.3-.7 10.6-1.4 15.5.2 27.7 9 55.7 6.7 84.3 4.3Zm20.3-20.8a43 43 0 0 1-26.8 6.4c-24.8 4.2-47 4.5-69-3.2-9.7-3.4-20-4.3-30-2.7-9.2 1.2-19.7 2.2-23.7-9.3-3.2-9.2 5.5-22.4 16.2-25.8 9.3-3 18.4-2.8 27 2.5L111 65c3.5 1.8 7 3.6 10 6 21.2 16.4 41 7.7 61.2-2.5 10-5 20.6-5.4 30 1.9 8.4 6.3 7.3 17.4-1.5 23Z" fill="#000"/></g><g transform="translate(653 805)"></g><g transform="translate(901 668)"><path d="M65.7 43.5c-4.3 23.6-7.3 45.8-.3 68.8A79.4 79.4 0 0 0 98 157.1c22.3 14.8 22.7 43 .4 57.5-24.6 16.2-50.8 14-77 7.5-11.8-3-17.9-14.2-21-25.4-2.7-9.6 6.5-25.2 16.6-31 3.1 3.8 2.4 7 .2 11.3-6.7 12.3 0 31.4 13.5 32.6 19.8 1.7 40.7 5.8 59.1-8 12.5-9.4 14-21.5 1.8-31.4-7.3-5.9-14.4-11.7-20.6-18.8-28-31.7-29.9-68.2-20-107 3.5-14.3 9.2-27 19-38C73 3 76-.9 80.5 2c5.9 3.9 1.2 8.4-1 12-5.6 9-10.6 18.3-13.8 29.5Z" fill="#000"/></g><g transform="translate(610 680)"><path d="M419.6 111c-4.2-9.5-9.9-15.2-19.8-15.7-6-.3-7-5.1-8.9-9.8 2-1.5 3.5-3.7 5.3-3.8 21.1-1.7 42.4-1.8 63.5-.1 6 .4 9.3 8 3.2 10.4-10 4-12.5 13.2-18.5 19.8-8.2 9-15.2 9.1-24.8-.8ZM228.6 81.4c12.2.7 23.1 1 34 2 3.6.3 8 1.8 8 6.7 0 5.6-4.6 5.2-8.3 5.1-6.3 0-9.7 2.7-12.5 8.6-3.4 7.4-6.9 15.3-18 14.8-10.5-.5-15.1-7.2-18.1-15.2-2.2-5.7-5-8.4-11-8.2-3.4.1-7.1-.2-7.5-4.9-.4-5 3-6 7-7.2a67.9 67.9 0 0 1 26.4-1.7Z" fill="#000"/></g><g transform="translate(610 680)"><g fill="#000"><path fill-rule="evenodd" clip-rule="evenodd" d="m326 14.3 154.5 1c4.7.2 9.4.6 14 1.3 7.1.9 10.4 4.2 12 12a181 181 0 0 1-6.3 90.4c-5.4 17.7-20 28.1-37.5 33.6-23 7.1-46.5 12.4-69.8 3.9-20.8-7.6-37.2-20-42.9-44-.7-3-1.6-5.9-2.5-8.8-2.5-8.3-5-16.5-3.2-25.7.7-4-3.1-5.9-6-7.4h-.1c-15-7.6-29.7-.2-32.4 16.5-3 18.3-9 35.8-19.4 50.8-16.5 23.9-41.6 29.4-69 26.1a97.2 97.2 0 0 1-56.2-26.6 58 58 0 0 1-20-48.8c.8-11.2-5.5-16.3-13.8-17.7-14.3-2.4-27.6-7.8-40.8-13.2-4.7-2-9.4-3.9-14.2-5.6-7.2-2.7-14.5-5-21.8-7.3a384.7 384.7 0 0 1-25-8.5c-3.8-1.4-7-2.6-6.4-8.5 5.7-2.6 11-1 16.4.8C39 29.8 42.8 31 46.8 31c-2.7-9-8.3-12.4-17.3-12.8A35.3 35.3 0 0 1 2 5C6.7.4 11 .7 15 1.8c21.4 5.8 43.2 9.1 65 12.4 18 2.7 36 5.4 53.8 9.6 10.3 2.3 21.4 2.4 31-6.5 6.3-5.6 15.5-5.5 24-5.3h3.1c25.3.3 50.5.9 76.2 1.4l32.3.7 25.6.2ZM150.5 80c3.3 41.7 26.7 63 62.7 71 23.6 5.2 52.3.1 66.8-26.8a203.8 203.8 0 0 0 17-47.6c4-15.2 14.3-20 35.7-18.3 14.3 1.2 20.9 7.9 22.8 22.5 1.4 11 3 22 5 32.8 2.5 13.7 19.5 30.3 33.3 33a117 117 0 0 0 64-4.6c12-4.3 22.9-10.4 28.7-23 10-22 13-45.3 12.7-69.2-.2-22-1.6-23.4-24.3-23.5h-42.2c-19.6 0-39.1 0-58.6-.2l-75-.8c-29-.4-58-.8-87.1-1-3.5 0-7.1-.3-10.7-.7-10.8-1-21.7-2-30.3 5.1-9 7.4-17.8 7.4-27.4 7.4h-3.4c-2.5 0-5-.5-7.5-1-4.2-.9-8.5-1.8-13.1-.1 1.3 14.8 4.7 27.7 21.9 31.2 6.3 1.2 9.7 4.8 9 13.8ZM74.5 26.6c8.9-1.2 17-2.2 20 10.5a195 195 0 0 0 4 11.4c-13-2.7-23.2-7.7-28.1-21.4l4.1-.5Z"/><path d="M287 44.8c-.8-6 3-7.4 7-7.4 19 0 38 0 57.1.5 4.4 0 8.5 2 11.1 5.5-6.9 8.1-53.6 9.4-75.3 1.4Z"/></g></g><g transform="translate(774 657)"><path d="M30.3 32.1C58 10 89.8 13.1 121 14.1c5.7 0 12.2 1.3 14.3 8.3 2.1 7.7-4.6 9.9-8.8 13.8a44.7 44.7 0 0 1-52.2 8.6 37.9 37.9 0 0 0-31.9 1.6c-2 1-3.8 1.9-5.8 2.6-6.3 2.5-14.3 6-18.6-.4-4.4-6.7 5.6-9 8.3-13.7.6-1 2-1.6 3.9-2.8ZM294.4 23.8c7.7 4.3 14.5 10 20 17 2.5 3 5 6.3 3 10.2-2.4 4.3-6.7 2.7-10.4 2.2-12.5-1.5-23.7-9.2-37-7.2-5 .8-9.9.7-15 2.5-13 4.7-31-6.4-33-19.8-1-5.4 1-8.5 6.8-10 22.2-5.7 44-9 65.6 5.1Z" fill="#000"/></g><g transform="translate(0 559)"><path d="m1722 1194-240.1 4.4s-20.1-26.7-36.5-144.5c-4-28.4 12.9-82.2 10-162.5-4.2-124-27.7-283.6-31.8-294.3a1230.2 1230.2 0 0 0-75-150.5c-28.6-45.6-38.6-124.5-25.4-189.5 1.3-6.6 6-25.5 21.5-29.9 16-4.5 31.5 11.7 39.4 9 8-2.6 23.3-18.4 34.6-22.9s23.1-6 19.2-35.7c-1.8-13.7-34-163.7 1.5-168.4 31.5-4.2 40.8 78.1 48.5 108.6 10.8 43.5 13.5 95.5 18 103s35 26.3 48.1 50.8c13.2 24.4 13.2 54.2 9 81.9-6.7 43.7-41.9 134.8-19.4 205.1 13.8 43.4 120.8 304.8 142 357.7 20.5 51.7 51.8 143.4 51.8 173.3 0 58.4-15.4 104.5-15.4 104.5Z" fill="#fff"/><path fill-rule="evenodd" clip-rule="evenodd" d="M1649.7 1194c20.2-29.3 23.7-63.4 27.2-97.6l1.5-13.5c3.6-31.7 3.7-63.7.4-95.4a493 493 0 0 0-13.6-67.5l-5.4-22c-4-17.3-9.3-34.2-14.5-51-3.2-10.2-6.4-20.4-9.3-30.6a693 693 0 0 0-33.2-90.6c-4.4-10-9.1-20-13.9-30a509.4 509.4 0 0 1-30.6-74.8c-3-10.2-6.5-20.4-10-30.5-9-26.4-18-52.8-18.5-81-.4-30.1 6.5-59.4 13.4-88.6l.8-3.2c8-33.8 16-67.6 14.3-102.9-1.5-33.9-21-56.1-46.3-74.5-16.7-12.2-36.6-18-56.5-22a70 70 0 0 0-55.4 13.6c-9.1 6.5-9.4 18.2-1.7 30 17.7-23.3 41.1-19.2 63.9-15.2l7.7 1.3c5.3.8 10.6 2.4 16 4 5.7 1.7 11.4 3.4 17.2 4.2 7.8 1.2 11.8 5.4 15.7 13.6-14.4 3.5-27.3.1-39.9-3.1a439.6 439.6 0 0 0-9.5-2.5c-13-3.3-25.6-6.5-39.5-3.9-17.3 3.3-27.5 12.2-28.7 29.9-.8 13.6-.4 27.3 0 40.9.2 6 2 12.9 9.7 12.5 6-.2 6-4.8 6.2-9.2v-2.7c2.4-28.6 34.4-55 62.6-50.6 3.2.5 6.5.8 9.8 1.2 11 1.2 22.1 2.3 31.8 9.1l2 1.3c2.7 1.6 5.4 3.2 3.8 7-2 4.9-6 3.7-10.3 2.4l-.6-.1-2.4-.7c-16.2-4.8-32.4-9.6-49.8-3.8a45.4 45.4 0 0 0-31 38.5 37.6 37.6 0 0 0 14.9 34.9c13.3 10.3 20.7 7.7 26.2-8 .8-2.3.6-5 .5-7.7-.3-5.1-.5-10.2 6-12.8 4.8-1.9 8.5.5 12.2 3 2.5 1.5 5 3 7.7 3.5a27.7 27.7 0 0 1 16.9 11.2c-5.7 6.7-11.2 4.7-16.7 2.8a27 27 0 0 0-7.3-1.8c-3 1.8-4 4.9-5 8-.3 1.2-.7 2.5-1.3 3.7-13 28.2-32 23.8-50.7 8.1h-.2c-1.8-1.7-4-3.4-4.9-5.6-5.5-13.2-13.5-20.1-29.4-18.6-7 .6-12-8.2-13-16.7a309.8 309.8 0 0 1-3-45.4c-5-.7-10-.7-15-.8-9.7 0-19.2 0-27.9-5-2.1-1.2-4-3.1-4.4-7.6 7.4-4.9 15.9-4.5 24.5-4 8.7.4 17.6.8 25.7-4-1-2-2.2-3.9-3.4-5.7-4.2-6.8-8.4-13.5-6.7-22.2.7-3.5-2.8-4.6-5.9-5.4-4-1.2-8-2.7-12-4.5-14.7-6.3-26-.9-28.6 15-7.2 44-9 88.1-.2 132 3.5 17.5 10.3 34 20 49a465 465 0 0 1 29.6 55.4l9.7 20c7.2 14.5 13.2 29.5 19.2 44.4l10 24.6c16.2 37.5 21.7 77.4 26.7 117.5 4.1 33.8 7.3 67.5 9 101.5l1.2 30 1 26.2c1.2 23.8 4.7 47.2 8.1 70.6 1.4 9.3 2.8 18.6 4 28 5 37.4 16 73.3 26.9 109.1l4.5 14.8a320.4 320.4 0 0 0 64.2 119.8c-5.5.8-11.2.8-16.8 0-49.5-61.6-68-134.2-86.4-205.5l-3-11.9-.3 1-.2.5c-1.8 4.8-4 10.8-5.1 17.7-5 29-2.2 57.7.7 86.4 2.2 21.5 7.5 42.5 15.8 62.3 3 7.2 6.7 14 10.4 20.7 5.2 9.5 10.4 19 13.6 29.6H1483a161.4 161.4 0 0 1-30.8-58.1c-12-35.5-15.7-72-17-108.8-.4-11.2 2.5-22 5.4-32.6a130.5 130.5 0 0 0 6-39.9c1.4-22.8 2.7-45.4-.2-68.5-2.5-19.4-2.7-39-2.8-58.8-.2-10.2-.2-20.4-.7-30.6v-1.1c-1-23.9-2.1-51.4-5-76l-2.2-21.5c-3.1-32.4-5.6-58-25.5-114.1-6.3-17.7-15-34.4-23.5-51-7.3-14.1-14.6-28.2-20.5-43a252.5 252.5 0 0 0-28.5-51c-15.9-22.6-19.8-48.4-23.7-74.3-.6-4.2-1.2-8.5-2-12.7-4.2-26.2-.8-51.9 2.6-77.5 1.2-9.7 2.5-19.4 3.4-29.1 2-21.4 22.8-30.8 49.1-24 4.2 1.1 8.2 2.6 12.4 4l6 2.2a56 56 0 0 1 29.5-21.3c14.3-3.8 14-12.7 13.7-24v-1c-.7-21.5-3.3-42.8-6-64.1-3.4-28.5-7-57-5.7-85.9 1-20.4 13.6-33.3 31.6-31 13.1 1.5 18.4 12.1 23.1 21.7 9.5 19.2 12.9 40.1 16.3 61a539 539 0 0 0 4.5 25.2c2.6 12.3 4.4 24.7 6.2 37.2 2.6 18.2 5.2 36.4 10.5 54.1l.2 1c.8 2.6 1.6 5.2 1.5 7.7-.6 9.7 4.4 15.3 12 20.7 26.4 18.5 44.4 44 50.4 75.3 4 20.7-.5 41.7-4.9 62.5l-1.9 9c-2.8 14-6 28-9.3 41.8a658.9 658.9 0 0 0-16.2 85.5c-1.9 18.9 3.1 36.6 9 53.5l1.4 4.2c8.2 23.4 16.3 46.8 26 69.7 21.1 49 40.8 98.5 59.7 148.3 3.2 8.4 6 17.1 8.6 25.8 5 16 10.1 32.2 18.3 46.8 11.8 21 22.3 42.7 32.8 64.4 7 14.4 14 28.9 21.3 43.1 2.7 5.2 3.8 10.8 5 16.3l1.4 7c9.4 37 18.5 74.2 18.6 112.7 0 25.4-2.8 50.8-6.5 76-1 7.4-4.2 13.8-7.8 21l-.7 1.3c-3.9.9-7.9.8-11.8 0l1.6-6.5c4.3-16.8 8.4-33.1 9-50.1 1.2-38.3.4-76.6-8.1-114.1l-1.6-6.9c-6.5-29.1-13.1-58.4-31.2-84 2 16.9 6.8 32.8 11.6 48.6a406 406 0 0 1 8.9 32.5c9.4 43.9 9.5 87.3-1.6 131-3.3 13.3-9 25.4-14.7 37.5l-6 12.8h-34.6Zm-205.2-991.7a259 259 0 0 0-3.6-60c-1.9-13.5-3.7-26.8-4-40.3.6-12.6-1.1-23.6-2.8-34.2l-1.3-8.8a76.3 76.3 0 0 1 2-35.4c1.4-4 2.9-8.3 8.3-8.6 5-.2 7.7 2.8 10 6.6 8 12.6 13.7 26.5 17 41 9.5 44.4 19.3 99 23.4 124.9l4.1 26s-33.1-13.2-53.1-11.2Zm241 945.7 4.5-22c4.1-29 4.9-56.2 5.7-83.6v-1.5c7.7 37 1 72.2-10.2 107Z" fill="#000"/><path d="M1523.3 552.2c-6.5 13.3-23.7 19-35.7 13.1-3.3-1.6-6-3.4-5.7-7.4.5-4.9 4.3-4.8 7.6-4.3 11.2 1.5 21.7-8.5 33.8-1.4Z" fill="#000"/></g></g></g></svg>